# xmcd CD database file
#
# Track frame offsets:
#	150
#	16282
#	35310
#	51855
#
# Disc length: 910 seconds
#
# Revision: 10
# Processed by: cddbd v1.5.1PL0 Copyright (c) Steve Scherf et al.
# Submitted via: CDex 1.51
#
DISCID=27038c04
DTITLE=Deacon Blue - Chocolate Girl [CD Single)
DYEAR=1987
DGENRE=Pop
TTITLE0=Chocolate girl
TTITLE1=S.H.A.R.O.N.
TTITLE2=The very thing
TTITLE3=Love's great fears
EXTD=YEAR: 1987
EXTT0=
EXTT1=
EXTT2=
EXTT3=
PLAYORDER=
